# xmcd
#
# Track frame offsets:
#	150
#	17234
#	32056
#	44909
#	59839
#	73729
#	81168
#	93513
#	106062
#	119268
#	131754
#	143845
#	159755
#	172185
#
# Disc length: 2470 seconds
#
# Revision: 1
# Processed by: cddbd v1.5.2PL0 Copyright (c) Steve Scherf et al.
# Submitted via: audiograbber 1.83.01
#
DISCID=cb09a40e
DTITLE=Various Artist - #1 70's Country Classics
DYEAR=2007
DGENRE=Country
TTITLE0=Kenny Rogers - You Decorated My Life
TTITLE1=Jeanne Pruett - Satin Sheets
TTITLE2=TG Sheppard - Devil in the Bottle
TTITLE3=Donna Fargo - That Was Yesterday
TTITLE4=Moe Bandy - I Cheated Me Right Out of You
TTITLE5=Mickey Gilley - Window Up Above
TTITLE6=Johnny Paycheck - Take This Job and Shove It
TTITLE7=Freddy Fender - Wasted Days and Wasted Nights
TTITLE8=Lynn Anderson - Keep Me in Mind
TTITLE9=Faron Young - It's Four in the Morning
TTITLE10=Freddy Fender - Before the Next Teardrop Falls
TTITLE11=B. J. Thomas - Another Somebody Done Somebody Wrong Song
TTITLE12=Merle Haggard - The Fighting Side of Me
TTITLE13=Lynn Anderson - Rose Garden
EXTD=
EXTT0=
EXTT1=
EXTT2=
EXTT3=
EXTT4=
EXTT5=
EXTT6=
EXTT7=
EXTT8=
EXTT9=
EXTT10=
EXTT11=
EXTT12=
EXTT13=
PLAYORDER=
